G75*
%MOIN*%
%OFA0B0*%
%FSLAX25Y25*%
%IPPOS*%
%LPD*%
%AMOC8*
5,1,8,0,0,1.08239X$1,22.5*
%
%ADD10R,0.04724X0.07087*%
%ADD11C,0.07600*%
%ADD12R,0.07087X0.04724*%
%ADD13R,0.08661X0.02362*%
%ADD14C,0.05200*%
%ADD15C,0.01969*%
%ADD16C,0.02400*%
%ADD17C,0.03569*%
D10*
X0059000Y0028125D03*
X0065500Y0028125D03*
X0065500Y0039928D03*
X0059000Y0039928D03*
D11*
X0063500Y0006526D03*
X0053500Y0006526D03*
X0043500Y0006526D03*
X0033500Y0006526D03*
X0023500Y0006526D03*
D12*
X0036598Y0026026D03*
X0048402Y0026026D03*
D13*
X0049736Y0032026D03*
X0049736Y0037026D03*
X0049736Y0042026D03*
X0049736Y0047026D03*
X0029264Y0047026D03*
X0029264Y0042026D03*
X0029264Y0037026D03*
X0029264Y0032026D03*
D14*
X0012000Y0028526D03*
X0012000Y0018526D03*
D15*
X0004596Y0004663D02*
X0005638Y0003737D01*
X0006777Y0003159D01*
X0007619Y0003010D01*
X0018905Y0003010D01*
X0018553Y0003495D01*
X0018140Y0004306D01*
X0017858Y0005172D01*
X0017716Y0006071D01*
X0017716Y0006526D01*
X0023500Y0006526D01*
X0023500Y0006526D01*
X0017716Y0006526D01*
X0017716Y0006981D01*
X0017858Y0007881D01*
X0018140Y0008747D01*
X0018553Y0009558D01*
X0019088Y0010294D01*
X0019732Y0010938D01*
X0020468Y0011473D01*
X0021280Y0011887D01*
X0022146Y0012168D01*
X0023045Y0012310D01*
X0023500Y0012310D01*
X0023500Y0006526D01*
X0023500Y0006526D01*
X0023500Y0012310D01*
X0023955Y0012310D01*
X0024854Y0012168D01*
X0025720Y0011887D01*
X0026532Y0011473D01*
X0027268Y0010938D01*
X0027912Y0010294D01*
X0028447Y0009558D01*
X0028593Y0009272D01*
X0028766Y0009689D01*
X0030337Y0011260D01*
X0030516Y0011334D01*
X0030516Y0011718D01*
X0030970Y0012815D01*
X0039835Y0021680D01*
X0036795Y0021680D01*
X0036795Y0025829D01*
X0036402Y0025829D01*
X0036402Y0021680D01*
X0032794Y0021680D01*
X0032289Y0021815D01*
X0031837Y0022076D01*
X0031467Y0022446D01*
X0031206Y0022898D01*
X0031071Y0023403D01*
X0031071Y0025829D01*
X0036401Y0025829D01*
X0036401Y0026223D01*
X0031071Y0026223D01*
X0031071Y0028650D01*
X0031181Y0029061D01*
X0029903Y0029061D01*
X0029857Y0029042D01*
X0026736Y0029042D01*
X0016384Y0018690D01*
X0016384Y0017654D01*
X0015717Y0016043D01*
X0014483Y0014809D01*
X0012872Y0014142D01*
X0011128Y0014142D01*
X0009517Y0014809D01*
X0008283Y0016043D01*
X0007616Y0017654D01*
X0007616Y0019398D01*
X0008283Y0021010D01*
X0009517Y0022243D01*
X0011128Y0022910D01*
X0012164Y0022910D01*
X0013765Y0024512D01*
X0012872Y0024142D01*
X0011128Y0024142D01*
X0009517Y0024809D01*
X0008283Y0026043D01*
X0007616Y0027654D01*
X0007616Y0029398D01*
X0008283Y0031010D01*
X0009517Y0032243D01*
X0011128Y0032910D01*
X0012164Y0032910D01*
X0018616Y0039363D01*
X0017975Y0040005D01*
X0017431Y0041316D01*
X0017431Y0042736D01*
X0017975Y0044048D01*
X0018979Y0045051D01*
X0020290Y0045595D01*
X0021710Y0045595D01*
X0023021Y0045051D01*
X0023062Y0045010D01*
X0023124Y0045010D01*
X0023084Y0045079D01*
X0022949Y0045584D01*
X0022949Y0047026D01*
X0029264Y0047026D01*
X0029264Y0047026D01*
X0029264Y0050191D01*
X0033856Y0050191D01*
X0034360Y0050056D01*
X0034516Y0049967D01*
X0034516Y0053620D01*
X0034970Y0054717D01*
X0036795Y0056542D01*
X0034064Y0056542D01*
X0032257Y0057026D01*
X0030500Y0057026D01*
X0029008Y0058518D01*
X0028284Y0058936D01*
X0028284Y0058936D01*
X0027749Y0059471D01*
X0027749Y0059471D01*
X0021694Y0065526D01*
X0007618Y0065526D01*
X0007386Y0065412D01*
X0004097Y0062123D01*
X0003764Y0061493D01*
X0003396Y0059380D01*
X0003426Y0058906D01*
X0003484Y0058848D01*
X0003484Y0058167D01*
X0003581Y0057493D01*
X0003484Y0057365D01*
X0003484Y0008760D01*
X0003541Y0008693D01*
X0003484Y0007950D01*
X0003484Y0007601D01*
X0003497Y0006985D01*
X0004047Y0005303D01*
X0004596Y0004663D01*
X0004898Y0004394D02*
X0018111Y0004394D01*
X0017716Y0006361D02*
X0003701Y0006361D01*
X0003513Y0008328D02*
X0018004Y0008328D01*
X0019089Y0010295D02*
X0003484Y0010295D01*
X0003484Y0012262D02*
X0022741Y0012262D01*
X0023500Y0012262D02*
X0023500Y0012262D01*
X0024259Y0012262D02*
X0030741Y0012262D01*
X0029372Y0010295D02*
X0027911Y0010295D01*
X0023500Y0010295D02*
X0023500Y0010295D01*
X0023500Y0008328D02*
X0023500Y0008328D01*
X0032384Y0014229D02*
X0013083Y0014229D01*
X0010917Y0014229D02*
X0003484Y0014229D01*
X0003484Y0016196D02*
X0008220Y0016196D01*
X0007616Y0018163D02*
X0003484Y0018163D01*
X0003484Y0020130D02*
X0007919Y0020130D01*
X0009371Y0022097D02*
X0003484Y0022097D01*
X0003484Y0024064D02*
X0013318Y0024064D01*
X0008294Y0026031D02*
X0003484Y0026031D01*
X0003484Y0027998D02*
X0007616Y0027998D01*
X0007851Y0029965D02*
X0003484Y0029965D01*
X0003484Y0031932D02*
X0009206Y0031932D01*
X0013153Y0033899D02*
X0003484Y0033899D01*
X0003484Y0035866D02*
X0015120Y0035866D01*
X0017087Y0037833D02*
X0003484Y0037833D01*
X0003484Y0039800D02*
X0018179Y0039800D01*
X0017431Y0041767D02*
X0003484Y0041767D01*
X0003484Y0043734D02*
X0017845Y0043734D01*
X0022949Y0045702D02*
X0003484Y0045702D01*
X0003484Y0047669D02*
X0022949Y0047669D01*
X0022949Y0047026D02*
X0029264Y0047026D01*
X0029264Y0047026D01*
X0029264Y0050191D01*
X0024672Y0050191D01*
X0024167Y0050056D01*
X0023715Y0049795D01*
X0023345Y0049426D01*
X0023084Y0048973D01*
X0022949Y0048468D01*
X0022949Y0047026D01*
X0023555Y0049636D02*
X0003484Y0049636D01*
X0003484Y0051603D02*
X0034516Y0051603D01*
X0034516Y0053570D02*
X0003484Y0053570D01*
X0003484Y0055537D02*
X0035790Y0055537D01*
X0030023Y0057504D02*
X0003579Y0057504D01*
X0003412Y0059471D02*
X0027749Y0059471D01*
X0025782Y0061438D02*
X0003754Y0061438D01*
X0005379Y0063405D02*
X0023815Y0063405D01*
X0021848Y0065372D02*
X0007346Y0065372D01*
X0029264Y0049636D02*
X0029264Y0049636D01*
X0029264Y0047669D02*
X0029264Y0047669D01*
X0035379Y0038927D02*
X0035810Y0038496D01*
X0039810Y0034496D01*
X0040906Y0034042D01*
X0042094Y0034042D01*
X0043717Y0034042D01*
X0043621Y0033946D01*
X0043621Y0032874D01*
X0043516Y0032620D01*
X0043516Y0029569D01*
X0043074Y0029127D01*
X0043074Y0024919D01*
X0042126Y0023971D01*
X0042126Y0025829D01*
X0036795Y0025829D01*
X0036795Y0026223D01*
X0036402Y0026223D01*
X0036402Y0030373D01*
X0035379Y0030373D01*
X0035379Y0033946D01*
X0034799Y0034526D01*
X0035379Y0035106D01*
X0035379Y0038927D01*
X0035379Y0037833D02*
X0036472Y0037833D01*
X0035379Y0035866D02*
X0038439Y0035866D01*
X0035379Y0033899D02*
X0043621Y0033899D01*
X0043516Y0031932D02*
X0035379Y0031932D01*
X0036795Y0030373D02*
X0036795Y0026223D01*
X0042126Y0026223D01*
X0042126Y0028650D01*
X0041991Y0029154D01*
X0041730Y0029607D01*
X0041360Y0029976D01*
X0040908Y0030237D01*
X0040403Y0030373D01*
X0036795Y0030373D01*
X0036795Y0029965D02*
X0036402Y0029965D01*
X0036402Y0027998D02*
X0036795Y0027998D01*
X0036795Y0026031D02*
X0043074Y0026031D01*
X0043074Y0027998D02*
X0042126Y0027998D01*
X0041371Y0029965D02*
X0043516Y0029965D01*
X0036401Y0026031D02*
X0023726Y0026031D01*
X0025693Y0027998D02*
X0031071Y0027998D01*
X0031071Y0024064D02*
X0021759Y0024064D01*
X0019792Y0022097D02*
X0031816Y0022097D01*
X0036402Y0022097D02*
X0036795Y0022097D01*
X0036795Y0024064D02*
X0036402Y0024064D01*
X0038285Y0020130D02*
X0017825Y0020130D01*
X0016384Y0018163D02*
X0036318Y0018163D01*
X0034351Y0016196D02*
X0015780Y0016196D01*
X0042126Y0024064D02*
X0042219Y0024064D01*
X0059000Y0039928D02*
X0060098Y0041928D01*
D16*
X0059000Y0039928D02*
X0056902Y0042026D01*
X0049736Y0042026D01*
X0043000Y0042026D01*
X0041500Y0043526D01*
X0041500Y0049526D01*
X0043500Y0051526D01*
X0069500Y0051526D01*
X0076000Y0045026D01*
X0076000Y0019026D01*
X0071500Y0014526D01*
X0056000Y0014526D01*
X0053500Y0012026D01*
X0053500Y0006526D01*
X0043500Y0006526D02*
X0043500Y0011526D01*
X0052000Y0020026D01*
X0068000Y0020026D01*
X0071000Y0023026D01*
X0071000Y0038026D01*
X0065500Y0043526D01*
X0065500Y0039928D01*
X0065500Y0043526D02*
X0062000Y0047026D01*
X0049736Y0047026D01*
X0040500Y0056026D02*
X0037500Y0053026D01*
X0037500Y0041026D01*
X0041500Y0037026D01*
X0049736Y0037026D01*
X0049736Y0032026D02*
X0046500Y0032026D01*
X0046500Y0027026D01*
X0047500Y0026026D01*
X0047500Y0030026D01*
X0048500Y0031026D01*
X0049500Y0031026D01*
X0050500Y0032026D01*
X0054500Y0032026D01*
X0056000Y0030526D01*
X0065500Y0030526D01*
X0066000Y0030026D01*
X0066000Y0026026D01*
X0066500Y0025526D01*
X0058000Y0025526D01*
X0057500Y0026026D01*
X0049000Y0026026D01*
X0048000Y0027026D01*
X0050750Y0029776D01*
X0053000Y0027526D01*
X0057500Y0027526D01*
X0063500Y0027526D01*
X0063000Y0028026D01*
X0061500Y0028026D01*
X0061598Y0028125D01*
X0065500Y0028125D01*
X0059000Y0028125D02*
X0057598Y0029526D01*
X0054500Y0029526D01*
X0053500Y0030526D01*
X0051500Y0030526D01*
X0050750Y0029776D01*
X0049736Y0032026D02*
X0049736Y0027361D01*
X0048402Y0026026D01*
X0033500Y0011125D01*
X0033500Y0006526D01*
X0012000Y0018526D02*
X0025500Y0032026D01*
X0029264Y0032026D01*
X0029264Y0037026D02*
X0020500Y0037026D01*
X0012000Y0028526D01*
X0021000Y0042026D02*
X0029264Y0042026D01*
X0040500Y0056026D02*
X0075000Y0056026D01*
X0081500Y0049526D01*
X0081500Y0014526D01*
X0073500Y0006526D01*
X0063500Y0006526D01*
X0057500Y0027526D02*
X0057372Y0027497D01*
X0057243Y0027472D01*
X0057113Y0027451D01*
X0056982Y0027433D01*
X0056852Y0027419D01*
X0056720Y0027409D01*
X0056589Y0027403D01*
X0056457Y0027401D01*
X0056326Y0027403D01*
X0056194Y0027408D01*
X0056063Y0027418D01*
X0055932Y0027431D01*
X0055802Y0027448D01*
X0055672Y0027469D01*
X0055543Y0027494D01*
X0055414Y0027522D01*
X0055287Y0027555D01*
X0055160Y0027591D01*
X0055035Y0027630D01*
X0054911Y0027674D01*
X0054788Y0027721D01*
X0054666Y0027772D01*
X0054546Y0027826D01*
X0054428Y0027884D01*
X0054312Y0027945D01*
X0054197Y0028009D01*
X0054084Y0028077D01*
X0053974Y0028148D01*
X0053865Y0028223D01*
X0053759Y0028300D01*
X0053655Y0028381D01*
X0053554Y0028465D01*
X0053455Y0028551D01*
X0053358Y0028641D01*
X0053265Y0028733D01*
X0053174Y0028828D01*
X0053085Y0028926D01*
X0053000Y0029026D01*
D17*
X0021000Y0042026D03*
M02*
