G75*
%MOIN*%
%OFA0B0*%
%FSLAX25Y25*%
%IPPOS*%
%LPD*%
%AMOC8*
5,1,8,0,0,1.08239X$1,22.5*
%
%ADD10C,0.00600*%
%ADD11C,0.00800*%
%ADD12C,0.00394*%
%ADD13C,0.00700*%
D10*
X0018615Y0012393D02*
X0018615Y0014662D01*
X0019182Y0015229D01*
X0020883Y0015229D01*
X0020883Y0011826D01*
X0019182Y0011826D01*
X0018615Y0012393D01*
X0022298Y0011826D02*
X0022298Y0015229D01*
X0024566Y0015229D02*
X0022298Y0011826D01*
X0024566Y0011826D02*
X0024566Y0015229D01*
X0025981Y0014662D02*
X0026548Y0015229D01*
X0027682Y0015229D01*
X0028249Y0014662D01*
X0028249Y0012393D01*
X0027682Y0011826D01*
X0026548Y0011826D01*
X0025981Y0012393D01*
X0025981Y0013528D01*
X0027115Y0013528D01*
X0030615Y0012960D02*
X0030615Y0015229D01*
X0032883Y0015229D02*
X0032883Y0012960D01*
X0031749Y0011826D01*
X0030615Y0012960D01*
X0034298Y0012393D02*
X0034865Y0011826D01*
X0035999Y0011826D01*
X0036566Y0012393D01*
X0036566Y0013528D02*
X0035432Y0014095D01*
X0034865Y0014095D01*
X0034298Y0013528D01*
X0034298Y0012393D01*
X0036566Y0013528D02*
X0036566Y0015229D01*
X0034298Y0015229D01*
X0038615Y0014095D02*
X0038615Y0011826D01*
X0038615Y0013528D02*
X0040883Y0013528D01*
X0040883Y0014095D02*
X0039749Y0015229D01*
X0038615Y0014095D01*
X0040883Y0014095D02*
X0040883Y0011826D01*
X0042298Y0012393D02*
X0042298Y0014662D01*
X0042865Y0015229D01*
X0044566Y0015229D01*
X0044566Y0011826D01*
X0042865Y0011826D01*
X0042298Y0012393D01*
X0045981Y0012393D02*
X0046548Y0011826D01*
X0047682Y0011826D01*
X0048249Y0012393D01*
X0049615Y0011826D02*
X0051883Y0011826D01*
X0051883Y0015229D01*
X0053298Y0014662D02*
X0053865Y0015229D01*
X0054999Y0015229D01*
X0055566Y0014662D01*
X0055566Y0012393D01*
X0054999Y0011826D01*
X0053865Y0011826D01*
X0053298Y0012393D01*
X0056981Y0012393D02*
X0057548Y0011826D01*
X0058682Y0011826D01*
X0059249Y0012393D01*
X0058682Y0013528D02*
X0057548Y0013528D01*
X0056981Y0012960D01*
X0056981Y0012393D01*
X0058682Y0013528D02*
X0059249Y0014095D01*
X0059249Y0014662D01*
X0058682Y0015229D01*
X0057548Y0015229D01*
X0056981Y0014662D01*
X0061615Y0015229D02*
X0061615Y0011826D01*
X0062749Y0012960D01*
X0063883Y0011826D01*
X0063883Y0015229D01*
X0065298Y0014662D02*
X0065298Y0012393D01*
X0065865Y0011826D01*
X0066999Y0011826D01*
X0067566Y0012393D01*
X0067566Y0014662D01*
X0066999Y0015229D01*
X0065865Y0015229D01*
X0065298Y0014662D01*
X0066432Y0012960D02*
X0065298Y0011826D01*
X0068981Y0012393D02*
X0069548Y0011826D01*
X0070682Y0011826D01*
X0071249Y0012393D01*
X0069548Y0013528D02*
X0068981Y0012960D01*
X0068981Y0012393D01*
X0069548Y0013528D02*
X0070682Y0013528D01*
X0071249Y0014095D01*
X0071249Y0014662D01*
X0070682Y0015229D01*
X0069548Y0015229D01*
X0068981Y0014662D01*
X0048249Y0014662D02*
X0048249Y0014095D01*
X0047682Y0013528D01*
X0046548Y0013528D01*
X0045981Y0012960D01*
X0045981Y0012393D01*
X0045981Y0014662D02*
X0046548Y0015229D01*
X0047682Y0015229D01*
X0048249Y0014662D01*
X0045133Y0017826D02*
X0043999Y0017826D01*
X0043431Y0018393D01*
X0045133Y0017826D02*
X0045700Y0018393D01*
X0045700Y0020662D01*
X0045133Y0021229D01*
X0043999Y0021229D01*
X0043431Y0020662D01*
X0042017Y0020662D02*
X0041450Y0021229D01*
X0040315Y0021229D01*
X0039748Y0020662D01*
X0039748Y0020095D01*
X0040315Y0019528D01*
X0039748Y0018960D01*
X0039748Y0018393D01*
X0040315Y0017826D01*
X0041450Y0017826D01*
X0042017Y0018393D01*
X0040883Y0019528D02*
X0040315Y0019528D01*
X0011703Y0042826D02*
X0008300Y0042826D01*
X0008300Y0044528D01*
X0008867Y0045095D01*
X0011136Y0045095D01*
X0011703Y0044528D01*
X0011703Y0042826D01*
X0011136Y0046509D02*
X0010569Y0046509D01*
X0010001Y0047076D01*
X0010001Y0048211D01*
X0009434Y0048778D01*
X0008867Y0048778D01*
X0008300Y0048211D01*
X0008300Y0047076D01*
X0008867Y0046509D01*
X0011136Y0046509D02*
X0011703Y0047076D01*
X0011703Y0048211D01*
X0011136Y0048778D01*
X0010569Y0050192D02*
X0011703Y0051327D01*
X0008300Y0051327D01*
X0008300Y0052461D02*
X0008300Y0050192D01*
X0008867Y0053876D02*
X0008300Y0054443D01*
X0008300Y0055577D01*
X0008867Y0056144D01*
X0009434Y0056144D01*
X0010001Y0055577D01*
X0010001Y0055010D01*
X0010001Y0055577D02*
X0010569Y0056144D01*
X0011136Y0056144D01*
X0011703Y0055577D01*
X0011703Y0054443D01*
X0011136Y0053876D01*
X0011136Y0057559D02*
X0008867Y0057559D01*
X0011136Y0059827D01*
X0008867Y0059827D01*
X0008300Y0059260D01*
X0008300Y0058126D01*
X0008867Y0057559D01*
X0011136Y0057559D02*
X0011703Y0058126D01*
X0011703Y0059260D01*
X0011136Y0059827D01*
X0011703Y0061242D02*
X0011703Y0063510D01*
X0011136Y0063510D01*
X0008867Y0061242D01*
X0008300Y0061242D01*
X0056800Y0051211D02*
X0056800Y0050076D01*
X0057367Y0049509D01*
X0058501Y0049509D02*
X0059069Y0050644D01*
X0059069Y0051211D01*
X0058501Y0051778D01*
X0057367Y0051778D01*
X0056800Y0051211D01*
X0058501Y0049509D02*
X0060203Y0049509D01*
X0060203Y0051778D01*
X0063300Y0051211D02*
X0063867Y0051778D01*
X0064434Y0051778D01*
X0065001Y0051211D01*
X0065001Y0049509D01*
X0063867Y0049509D01*
X0063300Y0050076D01*
X0063300Y0051211D01*
X0065001Y0049509D02*
X0066136Y0050644D01*
X0066703Y0051778D01*
X0066136Y0048095D02*
X0065001Y0048095D01*
X0064434Y0047528D01*
X0064434Y0045826D01*
X0063300Y0045826D02*
X0066703Y0045826D01*
X0066703Y0047528D01*
X0066136Y0048095D01*
X0064434Y0046960D02*
X0063300Y0048095D01*
X0060203Y0047528D02*
X0059636Y0048095D01*
X0058501Y0048095D01*
X0057934Y0047528D01*
X0057934Y0045826D01*
X0056800Y0045826D02*
X0060203Y0045826D01*
X0060203Y0047528D01*
X0057934Y0046960D02*
X0056800Y0048095D01*
D11*
X0046980Y0048975D02*
X0032020Y0048975D01*
X0020204Y0049328D02*
X0020204Y0046926D01*
X0015400Y0046926D01*
X0017001Y0046926D02*
X0017001Y0049328D01*
X0017802Y0050129D01*
X0019403Y0050129D01*
X0020204Y0049328D01*
X0017001Y0048527D02*
X0015400Y0050129D01*
X0020204Y0052083D02*
X0020204Y0055285D01*
X0019403Y0057239D02*
X0016201Y0057239D01*
X0015400Y0058040D01*
X0015400Y0059641D01*
X0016201Y0060442D01*
X0019403Y0060442D02*
X0020204Y0059641D01*
X0020204Y0058040D01*
X0019403Y0057239D01*
X0020204Y0053684D02*
X0015400Y0053684D01*
X0035000Y0031926D02*
X0035002Y0031989D01*
X0035008Y0032051D01*
X0035018Y0032113D01*
X0035031Y0032175D01*
X0035049Y0032235D01*
X0035070Y0032294D01*
X0035095Y0032352D01*
X0035124Y0032408D01*
X0035156Y0032462D01*
X0035191Y0032514D01*
X0035229Y0032563D01*
X0035271Y0032611D01*
X0035315Y0032655D01*
X0035363Y0032697D01*
X0035412Y0032735D01*
X0035464Y0032770D01*
X0035518Y0032802D01*
X0035574Y0032831D01*
X0035632Y0032856D01*
X0035691Y0032877D01*
X0035751Y0032895D01*
X0035813Y0032908D01*
X0035875Y0032918D01*
X0035937Y0032924D01*
X0036000Y0032926D01*
X0036063Y0032924D01*
X0036125Y0032918D01*
X0036187Y0032908D01*
X0036249Y0032895D01*
X0036309Y0032877D01*
X0036368Y0032856D01*
X0036426Y0032831D01*
X0036482Y0032802D01*
X0036536Y0032770D01*
X0036588Y0032735D01*
X0036637Y0032697D01*
X0036685Y0032655D01*
X0036729Y0032611D01*
X0036771Y0032563D01*
X0036809Y0032514D01*
X0036844Y0032462D01*
X0036876Y0032408D01*
X0036905Y0032352D01*
X0036930Y0032294D01*
X0036951Y0032235D01*
X0036969Y0032175D01*
X0036982Y0032113D01*
X0036992Y0032051D01*
X0036998Y0031989D01*
X0037000Y0031926D01*
X0036998Y0031863D01*
X0036992Y0031801D01*
X0036982Y0031739D01*
X0036969Y0031677D01*
X0036951Y0031617D01*
X0036930Y0031558D01*
X0036905Y0031500D01*
X0036876Y0031444D01*
X0036844Y0031390D01*
X0036809Y0031338D01*
X0036771Y0031289D01*
X0036729Y0031241D01*
X0036685Y0031197D01*
X0036637Y0031155D01*
X0036588Y0031117D01*
X0036536Y0031082D01*
X0036482Y0031050D01*
X0036426Y0031021D01*
X0036368Y0030996D01*
X0036309Y0030975D01*
X0036249Y0030957D01*
X0036187Y0030944D01*
X0036125Y0030934D01*
X0036063Y0030928D01*
X0036000Y0030926D01*
X0035937Y0030928D01*
X0035875Y0030934D01*
X0035813Y0030944D01*
X0035751Y0030957D01*
X0035691Y0030975D01*
X0035632Y0030996D01*
X0035574Y0031021D01*
X0035518Y0031050D01*
X0035464Y0031082D01*
X0035412Y0031117D01*
X0035363Y0031155D01*
X0035315Y0031197D01*
X0035271Y0031241D01*
X0035229Y0031289D01*
X0035191Y0031338D01*
X0035156Y0031390D01*
X0035124Y0031444D01*
X0035095Y0031500D01*
X0035070Y0031558D01*
X0035049Y0031617D01*
X0035031Y0031677D01*
X0035018Y0031739D01*
X0035008Y0031801D01*
X0035002Y0031863D01*
X0035000Y0031926D01*
X0032020Y0030077D02*
X0046980Y0030077D01*
D12*
X0027882Y0028026D02*
X0027884Y0028092D01*
X0027890Y0028158D01*
X0027900Y0028224D01*
X0027913Y0028289D01*
X0027931Y0028353D01*
X0027952Y0028415D01*
X0027977Y0028477D01*
X0028005Y0028537D01*
X0028037Y0028595D01*
X0028073Y0028651D01*
X0028111Y0028704D01*
X0028153Y0028756D01*
X0028198Y0028805D01*
X0028245Y0028851D01*
X0028296Y0028894D01*
X0028348Y0028934D01*
X0028403Y0028971D01*
X0028460Y0029005D01*
X0028519Y0029035D01*
X0028580Y0029062D01*
X0028642Y0029085D01*
X0028705Y0029104D01*
X0028770Y0029120D01*
X0028835Y0029132D01*
X0028901Y0029140D01*
X0028967Y0029144D01*
X0029033Y0029144D01*
X0029099Y0029140D01*
X0029165Y0029132D01*
X0029230Y0029120D01*
X0029295Y0029104D01*
X0029358Y0029085D01*
X0029420Y0029062D01*
X0029481Y0029035D01*
X0029540Y0029005D01*
X0029597Y0028971D01*
X0029652Y0028934D01*
X0029704Y0028894D01*
X0029755Y0028851D01*
X0029802Y0028805D01*
X0029847Y0028756D01*
X0029889Y0028704D01*
X0029927Y0028651D01*
X0029963Y0028595D01*
X0029995Y0028537D01*
X0030023Y0028477D01*
X0030048Y0028415D01*
X0030069Y0028353D01*
X0030087Y0028289D01*
X0030100Y0028224D01*
X0030110Y0028158D01*
X0030116Y0028092D01*
X0030118Y0028026D01*
X0030116Y0027960D01*
X0030110Y0027894D01*
X0030100Y0027828D01*
X0030087Y0027763D01*
X0030069Y0027699D01*
X0030048Y0027637D01*
X0030023Y0027575D01*
X0029995Y0027515D01*
X0029963Y0027457D01*
X0029927Y0027401D01*
X0029889Y0027348D01*
X0029847Y0027296D01*
X0029802Y0027247D01*
X0029755Y0027201D01*
X0029704Y0027158D01*
X0029652Y0027118D01*
X0029597Y0027081D01*
X0029540Y0027047D01*
X0029481Y0027017D01*
X0029420Y0026990D01*
X0029358Y0026967D01*
X0029295Y0026948D01*
X0029230Y0026932D01*
X0029165Y0026920D01*
X0029099Y0026912D01*
X0029033Y0026908D01*
X0028967Y0026908D01*
X0028901Y0026912D01*
X0028835Y0026920D01*
X0028770Y0026932D01*
X0028705Y0026948D01*
X0028642Y0026967D01*
X0028580Y0026990D01*
X0028519Y0027017D01*
X0028460Y0027047D01*
X0028403Y0027081D01*
X0028348Y0027118D01*
X0028296Y0027158D01*
X0028245Y0027201D01*
X0028198Y0027247D01*
X0028153Y0027296D01*
X0028111Y0027348D01*
X0028073Y0027401D01*
X0028037Y0027457D01*
X0028005Y0027515D01*
X0027977Y0027575D01*
X0027952Y0027637D01*
X0027931Y0027699D01*
X0027913Y0027763D01*
X0027900Y0027828D01*
X0027890Y0027894D01*
X0027884Y0027960D01*
X0027882Y0028026D01*
D13*
X0033815Y0051876D02*
X0034916Y0051876D01*
X0035467Y0052427D01*
X0033815Y0051876D02*
X0033265Y0052427D01*
X0033265Y0052977D01*
X0033815Y0053528D01*
X0034366Y0053528D01*
X0033815Y0053528D02*
X0033265Y0054078D01*
X0033265Y0054628D01*
X0033815Y0055179D01*
X0034916Y0055179D01*
X0035467Y0054628D01*
X0036948Y0055179D02*
X0036948Y0052427D01*
X0037499Y0051876D01*
X0038600Y0051876D01*
X0039150Y0052427D01*
X0039150Y0055179D01*
M02*
