G75*
%MOIN*%
%OFA0B0*%
%FSLAX25Y25*%
%IPPOS*%
%LPD*%
%AMOC8*
5,1,8,0,0,1.08239X$1,22.5*
%
%ADD10C,0.00600*%
%ADD11C,0.02400*%
%ADD12C,0.00800*%
%ADD13C,0.00700*%
D10*
X0005297Y0004344D02*
X0005864Y0003777D01*
X0008133Y0003777D01*
X0008700Y0004344D01*
X0008700Y0005478D01*
X0008133Y0006045D01*
X0006999Y0006045D01*
X0006999Y0004911D01*
X0005864Y0006045D02*
X0005297Y0005478D01*
X0005297Y0004344D01*
X0005297Y0007460D02*
X0008700Y0009728D01*
X0005297Y0009728D01*
X0005297Y0011143D02*
X0005297Y0012844D01*
X0005864Y0013412D01*
X0008133Y0013412D01*
X0008700Y0012844D01*
X0008700Y0011143D01*
X0005297Y0011143D01*
X0012297Y0009778D02*
X0014566Y0009778D01*
X0015700Y0008644D01*
X0014566Y0007509D01*
X0012297Y0007509D01*
X0012297Y0006095D02*
X0012297Y0003826D01*
X0013999Y0003826D01*
X0013431Y0004960D01*
X0013431Y0005528D01*
X0013999Y0006095D01*
X0015133Y0006095D01*
X0015700Y0005528D01*
X0015700Y0004393D01*
X0015133Y0003826D01*
X0008700Y0007460D02*
X0005297Y0007460D01*
X0006133Y0017594D02*
X0003864Y0017594D01*
X0003297Y0018161D01*
X0003297Y0019295D01*
X0003864Y0019862D01*
X0006133Y0019862D02*
X0006700Y0019295D01*
X0006700Y0018161D01*
X0006133Y0017594D01*
X0006700Y0021277D02*
X0003297Y0021277D01*
X0003297Y0022978D01*
X0003864Y0023545D01*
X0004999Y0023545D01*
X0005566Y0022978D01*
X0005566Y0021277D01*
X0005566Y0022411D02*
X0006700Y0023545D01*
X0004999Y0026094D02*
X0003864Y0024960D01*
X0003297Y0024960D01*
X0004999Y0026094D02*
X0006700Y0026094D01*
X0004999Y0026094D02*
X0003864Y0027228D01*
X0003297Y0027228D01*
X0004431Y0028643D02*
X0003297Y0029777D01*
X0006700Y0029777D01*
X0006700Y0028643D02*
X0006700Y0030912D01*
X0016000Y0023526D02*
X0015998Y0023400D01*
X0015992Y0023275D01*
X0015982Y0023149D01*
X0015968Y0023025D01*
X0015951Y0022900D01*
X0015929Y0022776D01*
X0015904Y0022653D01*
X0015874Y0022531D01*
X0015841Y0022410D01*
X0015804Y0022290D01*
X0015763Y0022171D01*
X0015719Y0022053D01*
X0015671Y0021937D01*
X0015619Y0021823D01*
X0015564Y0021710D01*
X0015505Y0021599D01*
X0015443Y0021490D01*
X0015377Y0021383D01*
X0015308Y0021278D01*
X0015236Y0021175D01*
X0015161Y0021074D01*
X0015082Y0020976D01*
X0015000Y0020881D01*
X0014916Y0020788D01*
X0014828Y0020697D01*
X0008000Y0023526D02*
X0008002Y0023652D01*
X0008008Y0023777D01*
X0008018Y0023903D01*
X0008032Y0024027D01*
X0008049Y0024152D01*
X0008071Y0024276D01*
X0008096Y0024399D01*
X0008126Y0024521D01*
X0008159Y0024642D01*
X0008196Y0024762D01*
X0008237Y0024881D01*
X0008281Y0024999D01*
X0008329Y0025115D01*
X0008381Y0025229D01*
X0008436Y0025342D01*
X0008495Y0025453D01*
X0008557Y0025562D01*
X0008623Y0025669D01*
X0008692Y0025774D01*
X0008764Y0025877D01*
X0008839Y0025978D01*
X0008918Y0026076D01*
X0009000Y0026171D01*
X0009084Y0026264D01*
X0009172Y0026355D01*
X0008000Y0023526D02*
X0008002Y0023400D01*
X0008008Y0023275D01*
X0008018Y0023149D01*
X0008032Y0023025D01*
X0008049Y0022900D01*
X0008071Y0022776D01*
X0008096Y0022653D01*
X0008126Y0022531D01*
X0008159Y0022410D01*
X0008196Y0022290D01*
X0008237Y0022171D01*
X0008281Y0022053D01*
X0008329Y0021937D01*
X0008381Y0021823D01*
X0008436Y0021710D01*
X0008495Y0021599D01*
X0008557Y0021490D01*
X0008623Y0021383D01*
X0008692Y0021278D01*
X0008764Y0021175D01*
X0008839Y0021074D01*
X0008918Y0020976D01*
X0009000Y0020881D01*
X0009084Y0020788D01*
X0009172Y0020697D01*
X0016000Y0023526D02*
X0015998Y0023652D01*
X0015992Y0023777D01*
X0015982Y0023903D01*
X0015968Y0024027D01*
X0015951Y0024152D01*
X0015929Y0024276D01*
X0015904Y0024399D01*
X0015874Y0024521D01*
X0015841Y0024642D01*
X0015804Y0024762D01*
X0015763Y0024881D01*
X0015719Y0024999D01*
X0015671Y0025115D01*
X0015619Y0025229D01*
X0015564Y0025342D01*
X0015505Y0025453D01*
X0015443Y0025562D01*
X0015377Y0025669D01*
X0015308Y0025774D01*
X0015236Y0025877D01*
X0015161Y0025978D01*
X0015082Y0026076D01*
X0015000Y0026171D01*
X0014916Y0026264D01*
X0014828Y0026355D01*
X0066797Y0019277D02*
X0067931Y0020412D01*
X0070200Y0020412D01*
X0068499Y0020412D02*
X0068499Y0018143D01*
X0067931Y0018143D02*
X0066797Y0019277D01*
X0067931Y0018143D02*
X0070200Y0018143D01*
X0072297Y0018143D02*
X0075700Y0018143D01*
X0075700Y0020412D01*
X0078297Y0020412D02*
X0081700Y0020412D01*
X0080566Y0019277D01*
X0081700Y0018143D01*
X0078297Y0018143D01*
X0078864Y0016728D02*
X0081133Y0016728D01*
X0081700Y0016161D01*
X0081700Y0015027D01*
X0081133Y0014460D01*
X0078864Y0014460D01*
X0078297Y0015027D01*
X0078297Y0016161D01*
X0078864Y0016728D01*
X0080566Y0015594D02*
X0081700Y0016728D01*
X0075700Y0016161D02*
X0075700Y0015027D01*
X0075133Y0014460D01*
X0072864Y0014460D01*
X0072297Y0015027D01*
X0072297Y0016161D01*
X0072864Y0016728D01*
X0075133Y0016728D02*
X0075700Y0016161D01*
X0070200Y0016161D02*
X0070200Y0014460D01*
X0066797Y0014460D01*
X0066797Y0016161D01*
X0067364Y0016728D01*
X0069633Y0016728D01*
X0070200Y0016161D01*
X0069633Y0013045D02*
X0070200Y0012478D01*
X0070200Y0011344D01*
X0069633Y0010777D01*
X0068499Y0011344D02*
X0068499Y0012478D01*
X0069066Y0013045D01*
X0069633Y0013045D01*
X0068499Y0011344D02*
X0067931Y0010777D01*
X0067364Y0010777D01*
X0066797Y0011344D01*
X0066797Y0012478D01*
X0067364Y0013045D01*
X0072297Y0012478D02*
X0072297Y0011344D01*
X0072864Y0010777D01*
X0073431Y0010777D01*
X0073999Y0011344D01*
X0073999Y0012478D01*
X0074566Y0013045D01*
X0075133Y0013045D01*
X0075700Y0012478D01*
X0075700Y0011344D01*
X0075133Y0010777D01*
X0072864Y0013045D02*
X0072297Y0012478D01*
X0078297Y0012478D02*
X0078297Y0011344D01*
X0078864Y0010777D01*
X0079431Y0010777D01*
X0079999Y0011344D01*
X0079999Y0012478D01*
X0080566Y0013045D01*
X0081133Y0013045D01*
X0081700Y0012478D01*
X0081700Y0011344D01*
X0081133Y0010777D01*
X0078864Y0013045D02*
X0078297Y0012478D01*
D11*
X0010500Y0050526D02*
X0010500Y0057526D01*
X0006500Y0054026D02*
X0014500Y0054026D01*
X0074000Y0054526D02*
X0080000Y0054526D01*
D12*
X0083500Y0048026D02*
X0069500Y0048026D01*
X0069500Y0067026D01*
X0083500Y0048026D02*
X0083500Y0034026D01*
X0069500Y0034026D01*
X0069500Y0026026D01*
X0058500Y0015026D01*
X0028500Y0015026D01*
X0017500Y0026026D01*
X0017500Y0034026D01*
X0003500Y0034026D01*
X0003500Y0048026D01*
X0017500Y0048026D01*
X0017500Y0067026D01*
D13*
X0073850Y0060734D02*
X0073850Y0057431D01*
X0075501Y0057431D01*
X0076052Y0057982D01*
X0076052Y0058532D01*
X0075501Y0059083D01*
X0073850Y0059083D01*
X0073850Y0060734D02*
X0075501Y0060734D01*
X0076052Y0060184D01*
X0076052Y0059633D01*
X0075501Y0059083D01*
X0077533Y0057982D02*
X0078084Y0057431D01*
X0079185Y0057431D01*
X0079735Y0057982D01*
X0079735Y0058532D01*
X0079185Y0059083D01*
X0078634Y0059083D01*
X0079185Y0059083D02*
X0079735Y0059633D01*
X0079735Y0060184D01*
X0079185Y0060734D01*
X0078084Y0060734D01*
X0077533Y0060184D01*
M02*
